{"glyphs":{":":{"x_min":0,"x_max":325,"ha":325,"o":"m 84 0 l 116 157 l 272 157 l 241 0 z m 162 392 l 193 548 l 350 548 l 319 392 z"},"$":{"x_min":0,"x_max":663,"ha":663,"o":"m 287 -78 l 303 1 q 187 9 107 39 l 133 166 l 211 166 l 202 120 q 252 83 317 74 l 366 321 l 349 334 q 277 388 253 424 q 229 459 229 510 q 229 591 291 652 q 353 712 447 722 l 462 801 l 535 801 l 519 722 q 602 717 678 689 l 655 573 l 576 573 l 585 619 q 551 644 504 649 l 459 421 l 501 391 q 604 318 604 235 q 604 149 536 80 q 468 11 375 1 l 359 -78 z m 378 77 q 477 110 477 197 q 477 243 418 281 z m 406 461 l 444 647 q 405 639 379 610 q 353 581 353 545 q 353 503 406 461 z"},"?":{"x_min":0,"x_max":536,"ha":536,"o":"m 157 0 l 181 121 l 325 121 l 301 0 z m 197 205 l 199 211 q 214 289 300 359 l 329 383 q 450 482 450 583 q 450 626 427 647 q 403 668 355 668 q 330 668 306 662 q 282 655 259 642 l 239 575 l 161 575 l 188 708 q 234 725 286 733 q 337 741 394 741 q 494 741 551 705 q 608 668 608 605 q 608 513 496 429 l 458 402 q 395 354 377 326 q 360 298 343 211 l 342 205 z"},"<":{"x_min":0,"x_max":663,"ha":663,"o":"m 601 24 l 124 288 l 707 554 l 685 445 l 326 279 l 620 120 z"},"'":{"x_min":0,"x_max":277,"ha":277,"o":"m 208 470 l 166 771 l 322 771 l 280 470 z"},"=":{"x_min":0,"x_max":663,"ha":663,"o":"m 94 142 l 112 232 l 643 232 l 625 142 z m 134 340 l 152 431 l 682 431 l 664 340 z"},"a":{"x_min":0,"x_max":658,"ha":658,"o":"m 413 0 l 458 226 q 407 121 332 54 q 257 -12 189 -12 q 142 -12 111 23 q 81 59 81 114 q 81 273 195 410 q 309 547 441 547 q 471 547 543 536 l 664 536 l 571 72 l 644 72 l 629 0 z m 480 340 l 502 450 q 460 470 420 470 q 354 470 313 413 q 281 368 255 286 q 229 204 229 148 q 229 125 238 114 q 247 103 264 103 q 297 103 359 170 q 420 238 480 340 z"},"L":{"x_min":0,"x_max":608,"ha":608,"o":"m 589 0 l 39 0 l 53 72 l 125 72 l 241 650 l 168 650 l 183 723 l 478 723 l 463 650 l 391 650 l 277 78 l 526 78 l 542 157 l 620 157 z"},"3":{"x_min":0,"x_max":663,"ha":663,"o":"m 115 7 l 139 131 l 217 131 l 211 71 q 248 54 300 54 q 375 54 425 103 q 475 151 475 224 q 475 288 426 319 q 377 351 280 351 l 244 351 l 258 423 l 295 423 q 405 423 467 466 q 530 508 530 583 q 530 621 499 645 q 468 668 419 668 q 398 668 377 664 q 356 660 334 650 l 318 596 l 239 596 l 263 715 q 310 728 357 734 q 405 741 453 741 q 563 741 619 706 q 674 671 674 601 q 674 532 620 477 q 566 421 471 393 q 549 374 588 332 q 626 291 626 228 q 626 120 538 51 q 450 -18 312 -18 q 214 -18 115 7 z"},";":{"x_min":0,"x_max":325,"ha":325,"o":"m 162 392 l 193 548 l 350 548 l 319 392 z m 56 -145 l 66 -90 q 119 -86 145 0 l 84 0 l 115 157 l 272 157 l 248 36 q 215 -132 56 -145 z"},"J":{"x_min":0,"x_max":459,"ha":459,"o":"m -24 -125 l 0 -3 l 78 -3 l 73 -60 q 103 -72 128 -72 q 169 -72 190 -43 q 211 -15 226 62 l 343 650 l 271 650 l 286 723 l 575 723 l 560 650 l 488 650 l 382 121 q 365 31 346 -10 q 327 -51 288 -85 q 220 -145 105 -145 q 34 -145 -24 -125 z"},"V":{"x_min":0,"x_max":711,"ha":711,"o":"m 304 -9 l 178 650 l 136 650 l 150 723 l 419 723 l 405 650 l 333 650 l 423 174 l 696 650 l 624 650 l 638 723 l 840 723 l 826 650 l 783 651 l 405 -9 z"},"\"":{"x_min":0,"x_max":482,"ha":482,"o":"m 226 482 l 190 771 l 334 771 l 298 482 z m 443 482 l 407 771 l 551 771 l 515 482 z"},"7":{"x_min":0,"x_max":663,"ha":663,"o":"m 180 0 q 199 104 245 177 q 317 295 480 473 l 596 600 l 221 600 l 246 723 l 737 723 l 718 626 l 662 564 q 356 222 333 0 z"},"S":{"x_min":0,"x_max":571,"ha":571,"o":"m 59 12 l 88 161 l 172 161 l 158 86 q 222 54 280 54 q 339 54 376 87 q 414 120 414 171 q 414 239 320 311 l 288 335 q 166 429 166 518 q 166 615 243 678 q 321 741 441 741 q 528 741 644 706 l 617 566 l 532 566 l 546 636 q 490 669 430 669 q 379 669 345 639 q 311 608 311 563 q 311 511 392 446 l 436 411 q 516 347 544 306 q 572 265 572 211 q 572 133 508 67 q 425 -18 257 -18 q 174 -18 59 12 z"},"}":{"x_min":0,"x_max":363,"ha":363,"o":"m 267 313 q 191 351 191 435 q 191 479 223 562 l 236 597 q 251 638 251 657 q 251 695 194 699 l 208 771 l 244 771 q 307 771 346 737 q 385 704 385 649 q 385 611 350 529 l 328 478 q 305 424 305 399 q 305 350 357 350 l 376 350 l 362 277 l 343 277 q 262 277 262 167 l 263 149 l 264 97 l 265 73 q 265 -10 234 -57 q 176 -145 62 -145 l 26 -145 l 41 -72 q 87 -70 105 -47 q 123 -25 123 29 l 124 64 q 124 254 267 313 z"},"Z":{"x_min":0,"x_max":678,"ha":678,"o":"m 57 0 l 71 72 l 538 650 l 283 650 l 269 578 l 190 578 l 219 723 l 742 723 l 729 657 l 258 78 l 556 78 l 570 149 l 648 149 l 619 0 z"},"x":{"x_min":0,"x_max":555,"ha":555,"o":"m 57 0 q 53 14 53 24 q 53 71 88 118 q 124 165 215 240 l 260 277 l 175 464 l 132 464 l 147 536 l 290 536 l 375 347 l 393 362 q 466 424 466 476 q 466 513 441 536 l 564 536 q 576 513 576 494 q 576 415 428 299 l 405 281 l 500 72 l 542 72 l 528 0 l 385 0 l 291 209 l 267 188 q 206 133 188 107 q 170 80 170 44 q 170 21 185 0 z"},")":{"x_min":0,"x_max":363,"ha":363,"o":"m 194 705 l 209 777 q 294 726 341 632 q 388 539 388 419 q 388 250 285 88 q 182 -74 24 -151 l 39 -78 q 131 -3 192 161 q 252 324 252 496 q 252 634 194 705 z"},"&":{"x_min":0,"x_max":780,"ha":780,"o":"m 532 0 l 503 41 q 402 -18 305 -18 q 202 -18 139 35 q 76 87 76 174 q 76 259 136 326 q 197 393 307 429 q 276 497 276 550 q 276 627 344 684 q 412 741 502 741 q 587 741 630 709 q 672 677 672 613 q 672 482 463 412 q 528 262 580 181 q 636 222 660 332 l 612 332 l 626 404 l 831 404 l 817 332 l 762 332 q 720 210 613 126 l 646 72 l 711 72 l 697 0 z m 439 468 q 551 519 551 612 q 551 639 538 652 q 524 666 498 666 q 462 666 437 639 q 412 612 412 573 q 412 533 439 468 z m 472 92 q 409 188 332 371 q 221 319 221 214 q 221 149 263 107 q 305 65 370 65 q 420 65 472 92 z"},"_":{"x_min":0,"x_max":500,"ha":500,"o":"m 27 -90 l 45 0 l 455 0 l 437 -90 z"},"v":{"x_min":0,"x_max":606,"ha":606,"o":"m 234 -6 q 234 242 140 464 l 98 464 l 112 536 l 278 536 q 347 356 358 160 q 465 284 499 338 q 533 393 533 438 q 533 491 485 536 l 649 536 q 664 511 664 486 q 664 410 492 206 l 312 -6 z"},"O":{"x_min":0,"x_max":819,"ha":819,"o":"m 388 -19 q 257 -19 181 55 q 106 128 106 256 q 106 453 245 597 q 384 741 572 741 q 706 741 782 668 q 857 596 857 467 q 857 270 718 125 q 579 -19 388 -19 z m 415 54 q 526 54 612 180 q 698 307 698 470 q 698 563 657 616 q 617 668 545 668 q 437 668 351 542 q 266 415 266 252 q 266 161 306 107 q 346 54 415 54 z"},"(":{"x_min":0,"x_max":363,"ha":363,"o":"m 300 -78 l 286 -151 q 200 -99 153 -5 q 107 88 107 208 q 107 377 210 539 q 313 700 470 777 l 456 705 q 363 629 302 466 q 242 302 242 130 q 242 -7 300 -78 z"},"C":{"x_min":0,"x_max":729,"ha":729,"o":"m 671 38 q 511 -18 395 -18 q 258 -18 182 55 q 105 128 105 259 q 105 457 244 599 q 383 741 578 741 q 693 741 803 714 l 772 560 l 694 560 l 702 632 q 626 669 564 669 q 446 669 356 545 q 265 421 265 261 q 265 169 314 118 q 363 66 452 66 q 555 66 687 119 z"},"W":{"x_min":0,"x_max":936,"ha":936,"o":"m 220 -9 l 220 650 l 178 650 l 192 723 l 435 723 l 421 650 l 346 650 l 347 218 l 593 717 l 697 717 l 698 211 l 907 650 l 834 650 l 849 723 l 1047 723 l 1033 650 l 991 650 l 678 -9 l 575 -9 l 574 508 l 319 -9 z"},"A":{"x_min":0,"x_max":720,"ha":720,"o":"m 234 209 l 156 72 l 228 72 l 214 0 l 12 0 l 27 72 l 69 72 l 448 732 l 549 732 l 682 72 l 725 72 l 710 0 l 447 0 l 461 72 l 535 72 l 507 209 z m 278 285 l 491 285 l 436 560 z"},"f":{"x_min":0,"x_max":434,"ha":434,"o":"m 73 -193 l 204 464 l 132 464 l 146 536 l 218 536 q 256 660 325 721 q 394 783 493 783 q 527 783 558 777 q 590 771 620 759 l 595 637 l 511 637 l 521 689 q 510 700 497 706 q 483 711 469 711 q 434 711 409 676 q 384 641 370 571 l 363 536 l 507 536 l 493 464 l 349 464 l 218 -193 z"},"Q":{"x_min":0,"x_max":819,"ha":819,"o":"m 533 3 q 601 -47 680 -73 q 759 -98 849 -98 q 895 -98 940 -86 q 914 -117 900 -133 q 872 -168 852 -179 q 833 -190 797 -190 q 717 -190 620 -144 q 523 -97 435 -16 q 403 -19 389 -19 q 260 -19 185 55 q 110 129 110 256 q 110 453 249 597 q 387 741 576 741 q 710 741 786 668 q 861 596 861 467 q 861 314 769 183 q 676 53 533 3 z m 419 54 q 530 54 616 180 q 702 307 702 470 q 702 563 661 616 q 621 668 549 668 q 440 668 355 542 q 270 415 270 252 q 270 161 310 107 q 350 54 419 54 z"},"w":{"x_min":0,"x_max":841,"ha":841,"o":"m 220 -6 q 220 270 148 464 l 106 464 l 121 536 l 269 536 q 322 378 340 189 q 462 393 492 536 l 554 536 q 616 339 633 190 q 700 280 733 345 q 766 410 766 450 q 766 497 728 536 l 886 536 q 896 520 896 503 q 896 463 872 417 q 848 371 764 249 l 589 -6 l 518 -6 q 518 168 486 308 q 444 227 291 -6 z"},"-":{"x_min":0,"x_max":325,"ha":325,"o":"m 100 261 l 118 351 l 347 351 l 329 261 z"},"E":{"x_min":0,"x_max":619,"ha":619,"o":"m 583 0 l 36 0 l 50 72 l 123 72 l 238 650 l 166 650 l 180 723 l 704 723 l 675 578 l 597 578 l 611 650 l 388 650 l 340 410 l 491 410 l 500 458 l 573 458 l 540 289 l 467 289 l 477 337 l 326 337 l 274 78 l 520 78 l 536 157 l 614 157 z"},"s":{"x_min":0,"x_max":503,"ha":503,"o":"m 60 25 l 84 152 l 169 152 l 157 90 q 202 60 253 60 q 295 60 316 77 q 337 95 337 129 q 337 160 293 204 l 254 242 q 197 298 180 327 q 162 355 162 392 q 162 463 221 506 q 281 548 380 548 q 454 548 535 522 l 509 396 l 425 396 l 437 453 q 401 476 366 476 q 334 476 313 459 q 292 441 292 416 q 292 383 341 337 l 381 300 q 474 215 474 150 q 474 78 413 33 q 352 -12 253 -12 q 154 -12 60 25 z"},">":{"x_min":0,"x_max":663,"ha":663,"o":"m 177 554 l 654 290 l 71 24 l 93 133 l 452 299 l 158 458 z"},"l":{"x_min":0,"x_max":343,"ha":343,"o":"m 96 0 l 235 699 l 163 699 l 177 771 l 394 771 l 255 72 l 327 72 l 313 0 z"},"8":{"x_min":0,"x_max":663,"ha":663,"o":"m 299 387 q 223 443 223 522 q 223 614 300 677 q 377 741 489 741 q 578 741 632 702 q 686 664 686 600 q 686 488 516 399 q 645 318 645 220 q 645 121 556 51 q 468 -18 342 -18 q 235 -18 173 27 q 112 71 112 149 q 112 280 299 387 z m 458 436 q 565 497 565 583 q 565 619 537 643 q 508 667 465 667 q 417 667 383 636 q 350 606 350 561 q 350 528 372 502 q 394 477 458 436 z m 353 348 q 246 269 246 167 q 246 117 279 85 q 313 54 367 54 q 428 54 469 91 q 511 128 511 182 q 511 226 483 255 q 455 284 353 348 z"},"\\":{"x_min":0,"x_max":563,"ha":563,"o":"m 421 -145 l 159 771 l 266 771 l 528 -145 z"},"e":{"x_min":0,"x_max":569,"ha":569,"o":"m 572 161 l 553 66 q 399 -12 281 -12 q 194 -12 140 37 q 86 87 86 167 q 86 317 194 433 q 302 548 441 548 q 497 548 533 517 q 570 485 570 438 q 570 339 471 269 q 372 199 233 199 l 233 191 q 233 141 266 110 q 298 80 351 80 q 439 80 572 161 z m 240 266 q 331 271 384 308 q 436 346 436 406 q 436 435 423 449 q 409 464 382 464 q 334 464 295 410 q 256 355 240 266 z"},"b":{"x_min":0,"x_max":657,"ha":657,"o":"m 95 0 l 233 699 l 161 699 l 176 771 l 393 771 l 340 506 l 301 310 q 350 414 425 481 q 500 548 568 548 q 617 548 647 512 q 678 476 678 419 q 678 264 564 126 q 450 -11 321 -11 q 305 -11 245 -4 q 230 -2 200 0 z m 278 196 l 256 86 q 298 66 339 66 q 404 66 445 124 q 477 168 503 250 q 529 332 529 385 q 529 410 521 422 q 512 434 495 434 q 460 434 401 368 q 341 303 278 196 z"},"%":{"x_min":0,"x_max":801,"ha":801,"o":"m 349 723 q 421 723 457 691 q 493 659 493 595 q 493 491 433 426 q 374 361 276 361 q 205 361 168 393 q 132 425 132 489 q 132 594 192 658 q 251 723 349 723 z m 240 485 q 240 454 252 438 q 264 422 288 422 q 328 422 356 474 q 385 525 385 599 q 385 631 373 647 q 361 663 337 663 q 297 663 269 611 q 240 559 240 485 z m 30 -18 l 800 741 l 917 741 l 140 -18 z m 668 361 q 740 361 776 330 q 812 298 812 234 q 812 129 753 65 q 693 0 596 0 q 524 0 488 32 q 452 64 452 128 q 452 232 512 297 q 571 361 668 361 z m 560 124 q 560 92 572 76 q 584 60 607 60 q 648 60 676 112 q 705 164 705 237 q 705 270 693 285 q 681 301 657 301 q 617 301 588 249 q 560 197 560 124 z"},"m":{"x_min":0,"x_max":992,"ha":992,"o":"m 103 0 l 194 464 l 122 464 l 137 536 l 341 536 l 295 312 l 303 312 q 362 424 431 486 q 500 548 566 548 q 603 548 627 522 q 650 496 650 456 q 650 434 641 391 l 623 312 l 631 312 q 688 422 759 485 q 830 548 896 548 q 934 548 958 520 q 981 491 981 446 q 981 422 974 386 l 912 72 l 984 72 l 970 0 l 759 0 l 828 348 q 833 375 833 386 q 833 419 808 419 q 748 419 609 201 l 569 0 l 431 0 l 500 348 q 505 375 505 386 q 505 419 479 419 q 419 419 281 201 l 241 0 z"},"#":{"x_min":0,"x_max":663,"ha":663,"o":"m 103 0 l 196 208 l 62 208 l 91 280 l 228 280 l 301 443 l 155 443 l 184 515 l 333 515 l 427 723 l 501 723 l 408 515 l 536 515 l 629 723 l 704 723 l 611 515 l 745 515 l 716 443 l 578 443 l 505 280 l 651 280 l 622 208 l 473 208 l 379 0 l 305 0 l 398 208 l 270 208 l 177 0 z m 303 280 l 431 280 l 504 443 l 375 443 z"},",":{"x_min":0,"x_max":325,"ha":325,"o":"m 56 -145 l 66 -90 q 119 -86 145 0 l 84 0 l 115 157 l 272 157 l 248 36 q 215 -132 56 -145 z"},"n":{"x_min":0,"x_max":680,"ha":680,"o":"m 96 0 l 188 464 l 116 464 l 130 536 l 347 536 l 303 312 q 360 422 432 485 q 503 548 572 548 q 610 548 637 520 q 663 492 663 452 q 663 428 655 385 l 592 72 l 665 72 l 650 0 l 434 0 l 506 364 q 509 378 509 390 q 509 420 485 420 q 414 420 279 193 l 241 0 z"},"h":{"x_min":0,"x_max":680,"ha":680,"o":"m 103 0 l 241 699 l 169 699 l 184 771 l 400 771 l 357 554 l 309 312 q 366 422 438 485 q 510 548 579 548 q 617 548 643 520 q 669 492 669 452 q 669 427 661 386 l 599 72 l 671 72 l 657 0 l 440 0 l 512 361 q 515 378 515 390 q 515 420 491 420 q 420 420 285 193 l 247 0 z"},"z":{"x_min":0,"x_max":613,"ha":613,"o":"m 72 0 l 86 69 l 458 464 l 246 464 l 234 404 l 155 404 l 182 536 l 642 536 l 629 470 l 260 78 l 493 78 l 505 139 l 583 139 l 556 0 z"},"B":{"x_min":0,"x_max":646,"ha":646,"o":"m 473 375 q 556 358 598 319 q 639 279 639 217 q 639 141 585 80 q 545 36 495 18 q 445 0 359 0 l 39 0 l 53 72 l 125 72 l 241 650 l 168 650 l 183 723 l 504 723 q 594 723 639 690 q 684 657 684 591 q 684 519 631 465 q 579 411 473 375 z m 268 72 q 375 72 407 89 q 488 132 488 220 q 488 273 448 305 q 409 337 343 337 l 320 337 z m 334 407 l 358 407 q 436 407 484 451 q 533 496 533 568 q 533 614 505 632 q 477 650 408 650 l 382 650 z"},"K":{"x_min":0,"x_max":724,"ha":724,"o":"m 123 72 l 238 650 l 166 650 l 180 723 l 457 723 l 442 650 l 382 650 l 329 375 l 613 650 l 553 650 l 568 723 l 778 723 l 763 650 l 715 650 l 452 396 l 669 72 l 717 72 l 703 0 l 421 0 l 436 72 l 496 72 l 323 353 l 267 72 l 328 72 l 313 0 l 36 0 l 50 72 z"},"R":{"x_min":0,"x_max":718,"ha":718,"o":"m 312 309 l 265 72 l 325 72 l 311 0 l 33 0 l 48 72 l 120 72 l 235 650 l 163 650 l 177 723 l 489 723 q 594 723 647 687 q 699 651 699 579 q 699 500 645 431 q 591 363 508 336 l 652 72 l 700 72 l 686 0 l 510 0 l 382 309 z m 326 378 l 351 378 q 437 378 493 430 q 549 483 549 562 q 549 606 519 628 q 489 650 428 650 l 380 650 z"},"T":{"x_min":0,"x_max":702,"ha":702,"o":"m 404 645 l 220 645 l 204 566 l 126 566 l 157 723 l 832 723 l 801 566 l 722 566 l 738 645 l 554 645 l 440 72 l 513 72 l 498 0 l 203 0 l 217 72 l 290 72 z"},"P":{"x_min":0,"x_max":631,"ha":631,"o":"m 315 297 l 271 72 l 343 72 l 328 0 l 39 0 l 53 72 l 125 72 l 241 650 l 168 650 l 183 723 l 497 723 q 602 723 654 686 q 707 649 707 575 q 707 483 640 403 q 552 297 352 297 z m 330 369 l 353 369 q 442 369 499 423 q 556 478 556 563 q 556 607 525 629 q 495 650 433 650 l 385 650 z"},"|":{"x_min":0,"x_max":259,"ha":259,"o":"m 56 -145 l 238 771 l 328 771 l 146 -145 z"},"t":{"x_min":0,"x_max":400,"ha":400,"o":"m 362 9 q 311 -10 253 -10 q 187 -10 154 20 q 121 49 121 108 q 121 130 127 161 l 186 458 l 117 458 l 132 536 l 202 536 l 219 626 l 369 652 l 346 536 l 458 536 l 442 458 l 331 458 l 275 182 q 269 149 269 129 q 269 102 281 89 q 294 75 319 75 q 348 75 378 92 z"},"M":{"x_min":0,"x_max":910,"ha":910,"o":"m 424 92 l 314 550 l 219 72 l 279 72 l 265 0 l 36 0 l 50 72 l 123 72 l 238 650 l 166 650 l 180 723 l 399 723 l 510 261 l 808 723 l 1016 723 l 1001 650 l 929 650 l 814 72 l 886 72 l 872 0 l 608 0 l 622 72 l 685 72 l 776 536 l 490 92 z"},"g":{"x_min":0,"x_max":649,"ha":649,"o":"m 85 -185 l 56 -50 q 173 -128 283 -128 q 342 -128 371 -94 q 401 -59 419 32 l 456 226 q 403 124 331 60 q 259 -3 193 -3 q 144 -3 113 32 q 82 67 82 124 q 82 279 195 413 q 309 547 439 547 q 470 547 542 536 l 662 536 l 557 5 q 537 -92 452 -149 q 368 -205 240 -205 q 166 -205 85 -185 z m 479 340 l 500 450 q 458 470 418 470 q 354 470 312 413 q 280 369 255 293 q 230 217 230 162 q 230 137 239 124 q 248 111 266 111 q 302 111 364 178 q 425 244 479 340 z"},"j":{"x_min":0,"x_max":403,"ha":403,"o":"m -83 -181 l -56 -48 l 28 -48 l 15 -112 q 40 -130 69 -130 q 140 -130 166 0 l 258 464 l 186 464 l 200 536 l 417 536 l 325 73 q 298 -61 225 -133 q 152 -205 42 -205 q -20 -205 -83 -181 z m 290 626 l 319 771 l 463 771 l 435 626 z"},"i":{"x_min":0,"x_max":343,"ha":343,"o":"m 96 0 l 188 464 l 116 464 l 130 536 l 347 536 l 255 72 l 327 72 l 313 0 z m 221 626 l 250 771 l 394 771 l 365 626 z"},"y":{"x_min":0,"x_max":606,"ha":606,"o":"m 24 -193 q 125 -122 203 -29 l 235 9 q 235 250 141 464 l 99 464 l 113 536 l 280 536 q 345 371 360 162 l 428 244 q 535 370 535 441 q 535 490 487 536 l 649 536 q 665 508 665 485 q 665 442 636 394 q 607 345 514 231 l 363 46 q 231 -114 189 -193 z"},"@":{"x_min":0,"x_max":855,"ha":855,"o":"m 600 22 q 505 -18 428 -18 q 290 -18 200 67 q 111 152 111 282 q 111 452 236 590 q 372 741 568 741 q 705 741 796 654 q 888 567 888 437 q 888 314 813 229 q 738 145 630 145 q 550 145 550 198 q 550 210 557 238 q 563 266 577 309 l 559 309 q 507 227 460 186 q 413 145 369 145 q 327 145 305 172 q 284 200 284 254 q 284 375 364 473 q 444 571 542 571 q 555 571 577 566 q 599 562 628 553 l 691 553 l 640 298 q 637 284 636 271 q 634 259 634 248 q 634 212 671 212 q 732 212 780 281 q 828 349 828 436 q 828 540 752 610 q 677 681 566 681 q 410 681 290 562 q 171 442 171 286 q 171 179 243 110 q 315 42 429 42 q 498 42 580 78 z m 574 397 l 594 497 q 574 508 555 514 q 536 520 518 520 q 457 520 413 450 q 370 381 370 283 q 370 250 379 234 q 389 218 409 218 q 437 218 484 269 q 531 320 574 397 z"},".":{"x_min":0,"x_max":325,"ha":325,"o":"m 84 0 l 116 157 l 272 157 l 241 0 z"},"p":{"x_min":0,"x_max":663,"ha":663,"o":"m 64 -193 l 195 464 l 123 464 l 137 536 l 354 536 l 309 310 q 359 416 434 482 q 509 548 579 548 q 625 548 656 512 q 686 476 686 418 q 686 263 572 126 q 458 -11 327 -11 q 290 -11 247 0 l 208 -193 z m 286 196 l 264 86 q 305 66 347 66 q 413 66 454 124 q 485 168 511 250 q 538 332 538 385 q 538 409 529 421 q 521 434 503 434 q 468 434 408 368 q 348 302 286 196 z"},"X":{"x_min":0,"x_max":667,"ha":667,"o":"m 331 368 l 211 650 l 168 650 l 183 723 l 442 723 l 428 650 l 368 650 l 449 461 l 602 650 l 542 650 l 556 723 l 756 723 l 742 650 l 700 650 l 484 384 l 616 72 l 659 72 l 644 0 l 384 0 l 399 72 l 459 72 l 365 293 l 178 72 l 239 72 l 225 0 l 25 0 l 39 72 l 81 72 z"},"*":{"x_min":0,"x_max":482,"ha":482,"o":"m 285 526 l 144 539 l 197 642 l 308 569 q 290 552 285 526 z m 322 581 l 319 723 l 427 723 l 368 581 q 355 586 346 586 q 336 586 322 581 z m 384 526 q 388 538 388 544 q 388 558 381 570 l 517 642 l 529 539 z m 334 485 q 358 489 376 511 l 466 416 l 366 355 z m 319 485 l 235 355 l 160 416 l 287 512 q 294 491 319 485 z"},"Y":{"x_min":0,"x_max":642,"ha":642,"o":"m 303 325 l 171 650 l 129 650 l 144 723 l 405 723 l 391 650 l 331 650 l 428 411 l 618 650 l 558 650 l 572 723 l 771 723 l 756 650 l 714 650 l 453 320 l 403 72 l 476 72 l 461 0 l 166 0 l 180 72 l 252 72 z"},"c":{"x_min":0,"x_max":546,"ha":546,"o":"m 510 40 q 382 -12 285 -12 q 195 -12 141 38 q 86 88 86 170 q 86 321 196 435 q 305 548 451 548 q 524 548 599 520 l 572 386 l 494 386 l 500 447 q 461 473 420 473 q 352 473 297 387 q 243 302 243 193 q 243 140 270 109 q 297 78 344 78 q 428 78 528 133 z"},"!":{"x_min":0,"x_max":313,"ha":313,"o":"m 84 0 l 108 121 l 253 121 l 229 0 z m 161 205 l 200 578 l 228 723 l 373 723 l 344 578 l 233 205 z"},"/":{"x_min":0,"x_max":563,"ha":563,"o":"m -23 -145 l 603 771 l 710 771 l 84 -145 z"},"[":{"x_min":0,"x_max":363,"ha":363,"o":"m 56 -145 l 238 771 l 464 771 l 449 699 l 347 699 l 193 -72 l 296 -72 l 282 -145 z"},"6":{"x_min":0,"x_max":663,"ha":663,"o":"m 300 405 q 386 470 471 470 q 555 470 609 419 q 663 368 663 289 q 663 164 574 73 q 486 -18 365 -18 q 251 -18 188 54 q 124 126 124 255 q 124 354 165 458 q 206 562 272 632 q 376 741 533 741 q 627 741 717 709 l 692 586 l 614 586 l 619 642 q 571 669 523 669 q 451 669 389 596 q 328 524 300 405 z m 269 201 q 269 134 298 93 q 327 53 376 53 q 435 53 478 117 q 521 181 521 267 q 521 331 496 363 q 470 395 419 395 q 351 395 310 342 q 269 289 269 201 z"},"r":{"x_min":0,"x_max":520,"ha":520,"o":"m 103 0 l 193 458 l 121 458 l 137 536 l 354 536 l 309 312 q 361 414 434 480 q 507 547 568 547 q 588 547 604 539 l 551 394 q 528 409 504 409 q 461 409 402 350 q 342 291 285 193 l 247 0 z"},"2":{"x_min":0,"x_max":663,"ha":663,"o":"m 89 0 l 104 75 q 153 174 299 290 l 363 340 q 535 475 535 568 q 535 614 503 643 q 472 672 421 672 q 394 672 365 663 q 337 654 307 636 l 290 580 l 211 580 l 235 697 q 288 719 344 730 q 401 741 462 741 q 566 741 626 697 q 687 652 687 576 q 687 512 649 461 q 611 411 521 353 l 466 318 q 262 187 255 114 l 597 114 l 571 0 z"},"{":{"x_min":0,"x_max":363,"ha":363,"o":"m 222 313 q 298 276 298 191 q 298 148 267 64 l 254 29 q 238 -12 238 -30 q 238 -69 295 -72 l 281 -145 l 246 -145 q 183 -145 143 -111 q 104 -78 104 -23 q 104 16 139 97 l 162 149 q 185 203 185 227 q 185 277 132 277 l 113 277 l 128 350 l 147 350 q 227 350 227 460 l 227 478 l 225 529 l 225 554 q 225 637 256 684 q 313 771 428 771 l 463 771 l 449 699 q 403 696 385 674 q 367 651 367 597 l 366 562 q 366 372 222 313 z"},"9":{"x_min":0,"x_max":663,"ha":663,"o":"m 513 317 q 427 253 342 253 q 258 253 204 304 q 150 355 150 434 q 150 559 239 650 q 328 741 449 741 q 562 741 626 668 q 689 596 689 468 q 689 369 649 265 q 608 162 541 91 q 438 -18 281 -18 q 185 -18 96 13 l 121 137 l 199 137 l 195 81 q 242 54 290 54 q 363 54 424 126 q 485 198 513 317 z m 545 521 q 545 589 516 630 q 486 670 438 670 q 379 670 335 606 q 292 542 292 456 q 292 392 318 360 q 343 328 395 328 q 462 328 504 381 q 545 435 545 521 z"}," ":{"x_min":0,"x_max":332,"ha":332,"o":""},"I":{"x_min":0,"x_max":374,"ha":374,"o":"m 391 650 l 276 72 l 349 72 l 334 0 l 39 0 l 53 72 l 125 72 l 241 650 l 168 650 l 183 723 l 478 723 l 463 650 z"},"H":{"x_min":0,"x_max":810,"ha":810,"o":"m 327 340 l 273 72 l 346 72 l 331 0 l 36 0 l 50 72 l 123 72 l 238 650 l 166 650 l 180 723 l 475 723 l 460 650 l 388 650 l 341 413 l 633 413 l 681 650 l 608 650 l 623 723 l 918 723 l 903 650 l 831 650 l 716 72 l 789 72 l 774 0 l 479 0 l 493 72 l 565 72 l 619 340 z"},"4":{"x_min":0,"x_max":663,"ha":663,"o":"m 423 196 l 83 196 l 99 277 l 548 733 l 654 733 l 566 292 l 650 292 l 631 196 l 547 196 l 522 72 l 594 72 l 580 0 l 312 0 l 326 72 l 398 72 z m 206 292 l 442 292 l 503 595 z"},"~":{"x_min":0,"x_max":663,"ha":663,"o":"m 107 206 q 125 291 171 339 q 217 387 280 387 q 318 387 391 345 l 439 316 q 503 279 532 279 q 587 279 610 371 l 670 371 q 653 286 607 238 q 561 189 498 189 q 460 189 387 232 l 338 260 q 274 298 246 298 q 191 298 167 206 z"},"D":{"x_min":0,"x_max":809,"ha":809,"o":"m 39 0 l 53 72 l 125 72 l 241 650 l 168 650 l 183 723 l 540 723 q 692 723 768 657 q 844 591 844 460 q 844 311 753 178 q 631 0 417 0 z m 277 78 l 322 78 q 430 78 482 96 q 535 115 581 169 q 627 223 656 303 q 684 384 684 459 q 684 559 632 605 q 579 650 465 650 l 391 650 z"},"^":{"x_min":0,"x_max":663,"ha":663,"o":"m 104 193 l 475 723 l 635 193 l 540 193 l 441 521 l 211 193 z"},"0":{"x_min":0,"x_max":663,"ha":663,"o":"m 328 -18 q 232 -18 171 53 q 110 124 110 237 q 110 442 218 591 q 326 741 473 741 q 575 741 636 670 q 696 599 696 479 q 696 379 660 275 q 624 170 564 99 q 467 -18 328 -18 z m 342 54 q 420 54 471 162 q 503 228 527 339 q 550 451 550 530 q 550 600 528 634 q 506 668 462 668 q 388 668 335 561 q 304 497 280 385 q 256 273 256 192 q 256 124 277 89 q 299 54 342 54 z"},"F":{"x_min":0,"x_max":591,"ha":591,"o":"m 323 322 l 273 72 l 358 72 l 343 0 l 36 0 l 50 72 l 123 72 l 238 650 l 166 650 l 180 723 l 704 723 l 675 578 l 597 578 l 611 650 l 388 650 l 337 395 l 488 395 l 498 443 l 570 443 l 536 274 l 464 274 l 474 322 z"},"`":{"x_min":0,"x_max":653,"ha":653,"o":"m 329 771 l 462 771 l 541 626 l 458 626 z"},"k":{"x_min":0,"x_max":626,"ha":626,"o":"m 96 0 l 235 699 l 163 699 l 177 771 l 394 771 l 299 295 l 314 295 q 410 345 458 394 q 506 443 506 491 q 506 519 490 536 l 635 536 q 643 525 643 511 q 643 467 592 413 q 541 359 438 295 q 502 178 588 72 l 630 72 l 616 0 l 460 0 q 375 126 307 261 l 292 261 l 241 0 z"},"u":{"x_min":0,"x_max":679,"ha":679,"o":"m 432 0 l 477 225 q 425 118 350 53 q 276 -12 207 -12 q 167 -12 142 16 q 117 45 117 91 q 117 111 125 151 l 187 464 l 115 464 l 129 536 l 346 536 l 274 172 q 271 158 271 147 q 271 114 296 114 q 364 114 500 343 l 539 536 l 684 536 l 591 72 l 664 72 l 649 0 z"},"]":{"x_min":0,"x_max":363,"ha":363,"o":"m 432 771 l 250 -145 l 24 -145 l 38 -72 l 141 -72 l 294 699 l 191 699 l 206 771 z"},"U":{"x_min":0,"x_max":760,"ha":760,"o":"m 229 650 l 156 650 l 170 723 l 466 723 l 451 650 l 379 650 l 299 250 q 293 219 293 189 q 293 126 328 90 q 363 54 424 54 q 500 54 542 103 q 584 151 606 265 l 683 650 l 611 650 l 625 723 l 880 723 l 865 650 l 793 650 l 720 285 q 689 128 611 55 q 533 -18 397 -18 q 283 -18 214 38 q 145 94 145 186 q 145 232 156 286 z"},"o":{"x_min":0,"x_max":624,"ha":624,"o":"m 282 -12 q 196 -12 142 38 q 88 87 88 167 q 88 315 197 432 q 306 548 445 548 q 535 548 589 499 q 644 450 644 369 q 644 219 534 104 q 424 -12 282 -12 z m 325 64 q 389 64 439 148 q 488 232 488 341 q 488 407 468 439 q 447 472 406 472 q 342 472 293 388 q 243 303 243 195 q 243 135 265 100 q 288 64 325 64 z"},"N":{"x_min":0,"x_max":780,"ha":780,"o":"m 310 528 l 219 72 l 292 72 l 277 0 l 36 0 l 50 72 l 123 72 l 238 650 l 166 650 l 180 723 l 356 723 l 623 214 l 709 650 l 637 650 l 651 723 l 892 723 l 878 650 l 806 650 l 675 -7 l 583 -7 z"},"+":{"x_min":0,"x_max":663,"ha":663,"o":"m 291 24 l 334 244 l 115 244 l 133 334 l 353 334 l 396 554 l 487 554 l 443 334 l 663 334 l 645 244 l 425 244 l 381 24 z"},"G":{"x_min":0,"x_max":768,"ha":768,"o":"m 670 32 q 512 -18 399 -18 q 259 -18 182 54 q 105 126 105 259 q 105 458 244 599 q 383 741 577 741 q 693 741 803 714 l 772 560 l 694 560 l 702 632 q 626 669 564 669 q 446 669 356 545 q 265 421 265 261 q 265 164 313 115 q 361 67 457 67 q 493 67 528 78 l 563 254 l 491 254 l 505 327 l 783 327 l 769 254 l 714 254 z"},"q":{"x_min":0,"x_max":652,"ha":652,"o":"m 373 -193 l 416 24 l 456 226 q 405 120 330 54 q 255 -12 186 -12 q 139 -12 109 24 q 79 61 79 118 q 79 196 118 285 q 157 375 219 440 q 321 547 445 547 q 469 547 542 536 l 662 536 l 517 -193 z m 479 340 l 500 450 q 459 470 418 470 q 352 470 311 412 q 280 368 253 286 q 227 205 227 151 q 227 127 236 115 q 244 103 261 103 q 296 103 356 168 q 417 234 479 340 z"},"d":{"x_min":0,"x_max":658,"ha":658,"o":"m 629 0 l 412 0 l 417 24 l 457 226 q 408 122 333 55 q 257 -12 189 -12 q 141 -12 111 24 q 81 60 81 117 q 81 198 120 288 q 160 378 225 445 q 324 546 446 546 q 475 546 520 539 l 551 699 l 479 699 l 493 771 l 710 771 l 571 72 l 644 72 z m 480 340 l 502 450 q 460 470 419 470 q 354 470 312 412 q 281 368 255 286 q 229 204 229 151 q 229 127 237 115 q 246 103 263 103 q 298 103 358 168 q 417 233 480 340 z"},"1":{"x_min":0,"x_max":663,"ha":663,"o":"m 555 729 l 424 72 l 544 72 l 530 0 l 145 0 l 159 72 l 279 72 l 390 626 l 265 603 l 279 675 z"},"5":{"x_min":0,"x_max":663,"ha":663,"o":"m 124 4 l 147 125 l 226 125 l 222 75 q 257 54 307 54 q 379 54 429 106 q 479 157 479 232 q 479 308 426 342 q 373 376 257 376 l 215 376 l 284 723 l 711 723 l 689 611 l 346 611 l 313 448 q 461 448 546 392 q 631 336 631 239 q 631 122 539 52 q 448 -18 294 -18 q 203 -18 124 4 z"}}}
